#!OML:ASF E:/inclinewalkrobotboard/Project1/Captureday1/Session1/subject1.ASF
:FULLY-SPECIFIED
:DEGREES
76
root 0 0 0 1.3136480857987065 -3.855773648902918 1.8329334941658408
lowerback 12.169090374660268 0.8579247614323398 -0.06019978872679077
upperback -4.3856204477672485 1.0952661550596332 -0.5682629744656272
thorax -11.618205113667837 0.49768679255940135 -0.8200322424001549
lowerneck -6.009074683466047 1.5936175971437831 4.463357757221107
upperneck 18.387260179775314 3.098789475456762 -8.197015516271202
head 6.743084850995224 1.1341821662307998 -3.1431485985606935
rclavicle 1.919465671897661E-15 -3.9720921716404597E-16
rhumerus 21.252529339451243 15.771355126997156 -47.6386696017358
rradius 73.64592764418224
rwrist 26.822173867021085
rhand -34.65998513135774 -57.66219393391119
rfingers 7.125020000000014
rthumb -7.800617844341522 -87.60618673751246
lclavicle -4.4291911407483706E-16 -1.0185936134124774E-15
lhumerus 22.126266064977813 -12.527881280635194 43.86368591531129
lradius 71.1187925446817
lwrist -23.56090078210338
lhand -44.62181157036564 -71.13557387315267
lfingers 7.125020000000031
lthumb -17.40131395357975 -41.838563151710375
rfemur -25.232050160225725 -2.2171584450855493 17.20172781965251
rtibia 54.19392718045235
rfoot -29.696174502092354 -16.76849427508961
rtoes -18.43060700336208
lfemur -26.49509277545412 2.2917811467666493 -17.63134697434285
ltibia 53.32984944202278
lfoot -32.59999145722453 -2.612434843925061
ltoes -21.006900812678722
77
root 0 0 0 1.3139444223752732 -3.853943884677847 1.83265098138898
lowerback 12.16926526207197 0.857704458098805 -0.059848643813471436
upperback -4.386091003655908 1.0950391747507802 -0.5683881052214775
thorax -11.618859469774014 0.4975417451474352 -0.8203297511504748
lowerneck -6.010281852411751 1.5941624386550879 4.463803696480533
upperneck 18.388506767470794 3.099415102848959 -8.197260121994642
head 6.743641257227904 1.134463370305817 -3.1432217498290296
rclavicle 1.932308781225895E-15 -4.034698049612539E-16
rhumerus 21.25329087426728 15.77182716764762 -47.63767938988744
rradius 73.64701252809132
rwrist 26.822783175232264
rhand -34.66051931473855 -57.663686026621
rfingers 7.125020000000014
rthumb -7.801416751506103 -87.60788251631662
lclavicle -4.36016848156938E-16 -1.0194948298656371E-15
lhumerus 22.124257928118638 -12.52909331158761 43.86414412966333
lradius 71.11751863903993
lwrist -23.560653596115536
lhand -44.62161755618382 -71.13285282645228
lfingers 7.125020000000031
lthumb -17.401129472599045 -41.834848349373374
rfemur -25.231271271554277 -2.2181496870228123 17.200789740155706
rtibia 54.19636861915087
rfoot -29.69905154665986 -16.767250422564405
rtoes -18.432702868796515
lfemur -26.488855374380773 2.29088114868667 -17.627694457111517
ltibia 53.32996306356094
lfoot -32.60034269372457 -2.61292634110868
ltoes -21.017222278366184
78
root 0 0 0 1.3138921465479374 -3.853659525631674 1.8326517257419148
lowerback 12.169264309433999 0.8576628839716758 -0.05989406367527028
upperback -4.386158994646545 1.0949758261132263 -0.5683984342719738
thorax -11.61894003913609 0.4975100543030472 -0.8203019203892539
lowerneck -6.010459519467465 1.5942602330657574 4.4638527264593355
upperneck 18.38873184226632 3.099536308768835 -8.197305214557813
head 6.74373739671877 1.13451272643253 -3.143228792148535
rclavicle 1.9322630607040905E-15 -4.0327470552150005E-16
rhumerus 21.2531526067421 15.77165544709919 -47.63770407779288
rradius 73.64692205896303
rwrist 26.822778554860257
rhand -34.660626819333935 -57.663740827802215
rfingers 7.125020000000014
rthumb -7.801514678292278 -87.60789825501872
lclavicle -4.3762282819379447E-16 -1.020235938911165E-15
lhumerus 22.1245504702917 -12.529296844952553 43.86398760112712
lradius 71.11785819550389
lwrist -23.5607294891294
lhand -44.62162906666856 -71.13318979063158
lfingers 7.125020000000031
lthumb -17.401134758790082 -41.83515673808881
rfemur -25.231158181192527 -2.218100978464313 17.200891016004555
rtibia 54.19627722281535
rfoot -29.698850832978415 -16.767175322061007
rtoes -18.43312621585944
lfemur -26.48881816440365 2.290787718950741 -17.627581503397206
ltibia 53.32988935470634
lfoot -32.60035648461998 -2.6134748094148903
ltoes -21.018517821504496
79
root 0 0 0 1.313839424671618 -3.853445671196586 1.832608308707481
lowerback 12.169246732106084 0.8576415818702459 -0.05987932065774626
upperback -4.386189122717867 1.0949501090925966 -0.5683938922577457
thorax -11.618966630197761 0.49749629615033475 -0.8203039065377893
lowerneck -6.010520240449663 1.5942990257343015 4.463896476896872
upperneck 18.3888375345942 3.099583714529653 -8.197340869441799
head 6.743778761253635 1.1345315764966681 -3.1432431129695706
rclavicle 1.932108211621562E-15 -4.0314512695078443E-16
rhumerus 21.25317733459586 15.771622398832003 -47.63761509221237
rradius 73.64695849773582
rwrist 26.822832568401804
rhand -34.660745611313615 -57.66392894139968
rfingers 7.125020000000014
rthumb -7.801629207127723 -87.60808839677262
lclavicle -4.3726600569590596E-16 -1.0195761145291473E-15
lhumerus 22.124606257156294 -12.529346822134649 43.863987028447106
lradius 71.11791540221604
lwrist -23.560705522795715
lhand -44.62165395254681 -71.13327789835908
lfingers 7.125020000000031
lthumb -17.401163048003117 -41.835266030086615
rfemur -25.231116602153254 -2.218028549885422 17.200907077657952
rtibia 54.19605760543141
rfoot -29.698901698717084 -16.767221708366574
rtoes -18.433122850628973
lfemur -26.488416096383798 2.2908342073821597 -17.627328637857314
ltibia 53.330038102215894
lfoot -32.59968714350927 -2.6140638695885734
ltoes -21.01992862947469
